<svg width="74" height="74" viewBox="0 0 74 74" fill="none" xmlns="http://www.w3.org/2000/svg">
<path d="M59.5 42.5001C58.5717 42.5001 57.6815 42.8689 57.0251 43.5253C56.3687 44.1816 56 45.0719 56 46.0001V47.3301L50.82 42.1501C48.991 40.3355 46.5189 39.3173 43.9425 39.3173C41.3661 39.3173 38.894 40.3355 37.065 42.1501L34.615 44.6001L25.935 35.9201C24.0804 34.1547 21.618 33.1701 19.0575 33.1701C16.497 33.1701 14.0346 34.1547 12.18 35.9201L7 41.1001V21.5001C7 20.5719 7.36875 19.6816 8.02513 19.0253C8.6815 18.3689 9.57174 18.0001 10.5 18.0001H35C35.9283 18.0001 36.8185 17.6314 37.4749 16.975C38.1312 16.3186 38.5 15.4284 38.5 14.5001C38.5 13.5719 38.1312 12.6816 37.4749 12.0253C36.8185 11.3689 35.9283 11.0001 35 11.0001H10.5C7.71523 11.0001 5.04451 12.1064 3.07538 14.0755C1.10625 16.0446 0 18.7154 0 21.5001V63.5001C0 66.2849 1.10625 68.9556 3.07538 70.9248C5.04451 72.8939 7.71523 74.0001 10.5 74.0001H52.5C55.2848 74.0001 57.9555 72.8939 59.9246 70.9248C61.8938 68.9556 63 66.2849 63 63.5001V46.0001C63 45.0719 62.6313 44.1816 61.9749 43.5253C61.3185 42.8689 60.4283 42.5001 59.5 42.5001ZM10.5 67.0001C9.57174 67.0001 8.6815 66.6314 8.02513 65.975C7.36875 65.3186 7 64.4284 7 63.5001V51.0051L17.15 40.8551C17.6642 40.3651 18.3472 40.0918 19.0575 40.0918C19.7678 40.0918 20.4508 40.3651 20.965 40.8551L32.06 51.9501L47.11 67.0001H10.5ZM56 63.5001C55.995 64.1701 55.774 64.8206 55.37 65.3551L39.585 49.5001L42.035 47.0501C42.2859 46.794 42.5854 46.5906 42.916 46.4517C43.2465 46.3128 43.6015 46.2412 43.96 46.2412C44.3185 46.2412 44.6735 46.3128 45.004 46.4517C45.3346 46.5906 45.6341 46.794 45.885 47.0501L56 57.2351V63.5001ZM72.485 12.0151L61.985 1.51513C61.6521 1.19648 61.2596 0.946706 60.83 0.780125C59.9779 0.430062 59.0221 0.430062 58.17 0.780125C57.7404 0.946706 57.3479 1.19648 57.015 1.51513L46.515 12.0151C45.8559 12.6742 45.4857 13.5681 45.4857 14.5001C45.4857 15.4322 45.8559 16.3261 46.515 16.9851C47.1741 17.6442 48.0679 18.0144 49 18.0144C49.9321 18.0144 50.8259 17.6442 51.485 16.9851L56 12.4351V32.0001C56 32.9284 56.3687 33.8186 57.0251 34.475C57.6815 35.1314 58.5717 35.5001 59.5 35.5001C60.4283 35.5001 61.3185 35.1314 61.9749 34.475C62.6313 33.8186 63 32.9284 63 32.0001V12.4351L67.515 16.9851C67.8404 17.3132 68.2275 17.5736 68.654 17.7512C69.0805 17.9289 69.538 18.0204 70 18.0204C70.462 18.0204 70.9195 17.9289 71.346 17.7512C71.7725 17.5736 72.1596 17.3132 72.485 16.9851C72.813 16.6598 73.0734 16.2727 73.2511 15.8461C73.4288 15.4196 73.5203 14.9622 73.5203 14.5001C73.5203 14.0381 73.4288 13.5806 73.2511 13.1541C73.0734 12.7276 72.813 12.3405 72.485 12.0151Z" fill="#666666"/>
</svg>
